<svg xmlns="http://www.w3.org/2000/svg" viewBox="0 0 303 160"><defs><style>.cls-1{fill:none;stroke:#e84525;stroke-width:4px;}.cls-1,.cls-6,.cls-7{stroke-miterlimit:10;}.cls-2{fill:#42187b;}.cls-3{fill:#e74221;}.cls-4{fill:#b5314a;}.cls-5,.cls-6,.cls-7{fill:#fff;}.cls-6,.cls-7{stroke:#fff;}.cls-6{stroke-width:3px;}.cls-7{stroke-width:2px;}</style></defs><title>Folsom</title><g id="Shapes"><rect width="303" height="160"/><rect id="Red_border" data-name="Red border" class="cls-1" x="21.73" y="21.42" width="256.84" height="117.28"/><rect class="cls-2" x="71.94" y="70.97" width="11.06" height="4.97"/><rect class="cls-3" x="83" y="70.97" width="10.97" height="4.97"/><rect class="cls-4" x="83" y="70.97" width="0.92" height="4.97"/></g><g id="Letters"><polygon id="F" class="cls-5" points="41 39.08 61.83 39.08 61.83 45 47 45 47 53.03 60.03 53.03 60.03 58.94 47.03 58.94 47.03 76.88 41 76.88 41 39.08"/><ellipse class="cls-5" cx="83.46" cy="51.84" rx="14.1" ry="13.16"/><circle cx="83.46" cy="51.84" r="7.47"/><polygon class="cls-5" points="105.94 37.94 105.94 76.88 129.13 76.88 129.13 70.97 113.19 70.97 113.19 37.94 105.94 37.94"/><g id="s"><path class="cls-6" d="M291.16,386.91l2.37-3.19a12.2,12.2,0,0,0,9.06,4.45c4.25,0,6.71-2.36,6.71-5.66,0-3.84-2.41-4.94-5.53-6.47l-4.48-2.31c-3.07-1.43-6.66-4-6.66-9.28,0-5.49,4.25-9.55,10.15-9.55a12.61,12.61,0,0,1,9.54,4.45l-2.08,3a10.07,10.07,0,0,0-7.6-3.35c-3.59,0-6,2-6,5.22,0,3.46,2.88,4.72,5.53,5.93l4.34,2.25c3.83,1.75,6.85,4.28,6.85,9.61,0,5.71-4.15,10.26-11,10.26A14.72,14.72,0,0,1,291.16,386.91Z" transform="translate(-154.5 -316)"/></g><ellipse class="cls-5" cx="189.42" cy="57.78" rx="20.91" ry="19.84"/></g><g id="Layer_5" data-name="Layer 5"><circle cx="189.42" cy="57.78" r="13.19"/><polygon class="cls-5" points="227.06 77 219.06 77 219.06 38.75 221.88 38.75 241.44 45 261.06 38.75 264.13 38.75 264.13 77 255.88 77 255.88 48.13 245.06 51.94 245.06 77 237.94 77 237.94 52.19 226.94 48.06 227.06 77"/><polygon class="cls-5" points="55.08 92.13 55.08 97.16 62.88 97.16 62.88 119.17 67.21 119.17 67.21 97.2 75.02 97.2 75.02 92.13 55.08 92.13"/><path class="cls-7" d="M190,430.63l1.63-2.2a8.43,8.43,0,0,0,6.27,3.07c2.94,0,4.63-1.63,4.63-3.91,0-2.65-1.66-3.41-3.82-4.47l-3.1-1.6c-2.12-1-4.6-2.73-4.6-6.41s2.94-6.61,7-6.61a8.7,8.7,0,0,1,6.59,3.08l-1.43,2.05a7,7,0,0,0-5.26-2.32c-2.48,0-4.14,1.37-4.14,3.61s2,3.26,3.81,4.1l3,1.55c2.64,1.22,4.73,3,4.73,6.64,0,4-2.87,7.1-7.57,7.1A10.17,10.17,0,0,1,190,430.63Z" transform="translate(-154.5 -316)"/><path class="cls-7" d="M239.91,423.83v9.88H236.8v-25h9.52a8.07,8.07,0,0,1,5.77,2,7,7,0,0,1,2.17,5.41,7.65,7.65,0,0,1-1.33,4.51,6.81,6.81,0,0,1-3.68,2.65L255,433.71h-3.64L246,423.83Zm0-12.33v9.56H246a5.17,5.17,0,0,0,3.71-1.24,4.67,4.67,0,0,0,1.3-3.54,4.54,4.54,0,0,0-1.37-3.51,5.36,5.36,0,0,0-3.78-1.27Z" transform="translate(-154.5 -316)"/><path class="cls-7" d="M276.41,433.59l-2,0-4.68,0-3.55,0-2.72,0c0-.72,0-2.27.05-4.65s0-4.85,0-7.39c0-1.4,0-3.24,0-5.54s0-4.68-.06-7.13h2.71c1.08,0,2.2,0,3.35,0,1.94,0,3.52,0,4.74,0h2v2.57l-1.92,0-4.39,0h-4c0,1.4,0,2.79,0,4.18s0,2.7,0,3.94h3.3q2.68,0,4.8,0l2.25,0v2.56l-2.52,0-4.38,0h-3.45c0,2.33,0,4.19,0,5.56s0,2.52,0,3.44c.6,0,1.32,0,2.18,0h2.76l3.82,0,1.73,0Z" transform="translate(-154.5 -316)"/><path class="cls-7" d="M299.5,433.59l-2,0-4.69,0-3.54,0-2.73,0q0-1.08.06-4.65t0-7.39c0-1.4,0-3.24,0-5.54s0-4.68-.06-7.13h2.71c1.09,0,2.2,0,3.35,0,1.94,0,3.53,0,4.75,0h2v2.57l-1.92,0-4.38,0h-4c0,1.4,0,2.79,0,4.18s0,2.7,0,3.94h3.3q2.69,0,4.8,0l2.25,0v2.56l-2.52,0-4.38,0H289c0,2.33,0,4.19,0,5.56s0,2.52,0,3.44c.6,0,1.33,0,2.18,0h2.76l3.83,0,1.73,0Z" transform="translate(-154.5 -316)"/><path class="cls-7" d="M339.36,409.34h13V412H342.06v8.16h8.68v2.62h-8.68v10.82h-2.7Z" transform="translate(-154.5 -316)"/><path class="cls-7" d="M377.47,432.74l-2.53,1.47c0-.13-.39-1-1-2.71s-1.5-3.83-2.57-6.46h-9.62q-1.71,4.23-2.64,6.57c-.62,1.55-1,2.42-1,2.6l-2.17-1.32q.42-.94,3.48-8.34T365.71,409h2.11q3.26,8.14,6.39,15.79C376.3,429.89,377.38,432.54,377.47,432.74Zm-7.06-10c-.57-1.49-1.18-3-1.81-4.65l-2-5.06h-.07q-.81,2-2,4.92t-1.9,4.78h7.76Z" transform="translate(-154.5 -316)"/><path class="cls-7" d="M387.44,433.69h-2.68c0-.74,0-2.05.05-3.94s0-4.61,0-8.14c0-1.4,0-3.24,0-5.51s0-4.63-.06-7.07h2.68q0,2.64-.06,6.12c0,2.33,0,4.23,0,5.7q0,5.59,0,8.67C387.41,431.56,387.43,433,387.44,433.69Z" transform="translate(-154.5 -316)"/><path class="cls-7" d="M400.74,423.83v9.88h-3.11v-25h9.52a8.09,8.09,0,0,1,5.78,2,7.08,7.08,0,0,1,2.17,5.41,7.72,7.72,0,0,1-1.33,4.51,6.88,6.88,0,0,1-3.68,2.65l5.77,10.37h-3.65l-5.34-9.88Zm0-12.33v9.56h6.13a5.17,5.17,0,0,0,3.71-1.24,4.63,4.63,0,0,0,1.3-3.54,4.54,4.54,0,0,0-1.36-3.51,5.37,5.37,0,0,0-3.79-1.27Z" transform="translate(-154.5 -316)"/><polygon class="cls-5" points="151.5 92.13 151.5 97.16 159.29 97.16 159.29 119.17 163.63 119.17 163.63 97.2 171.43 97.2 171.43 92.13 151.5 92.13"/></g></svg>